<svg width="32" height="32" viewBox="0 0 32 32" xmlns="http://www.w3.org/2000/svg">
  <!-- 背景圆 -->
  <circle cx="16" cy="16" r="15" fill="#1a1a1a"/>
  <circle cx="16" cy="16" r="14" fill="#2d2d2d"/>
  
  <!-- 时钟刻度（12个点） -->
  <g opacity="0.8">
    <circle cx="16" cy="3" r="0.5" fill="#4caf50"/>
    <circle cx="9.5" cy="4.74" r="0.5" fill="#4caf50"/>
    <circle cx="4.74" cy="9.5" r="0.5" fill="#4caf50"/>
    <circle cx="3" cy="16" r="0.5" fill="#4caf50"/>
    <circle cx="4.74" cy="22.5" r="0.5" fill="#4caf50"/>
    <circle cx="9.5" cy="27.26" r="0.5" fill="#4caf50"/>
    <circle cx="16" cy="29" r="0.5" fill="#4caf50"/>
    <circle cx="22.5" cy="27.26" r="0.5" fill="#4caf50"/>
    <circle cx="27.26" cy="22.5" r="0.5" fill="#4caf50"/>
    <circle cx="29" cy="16" r="0.5" fill="#4caf50"/>
    <circle cx="27.26" cy="9.5" r="0.5" fill="#4caf50"/>
    <circle cx="22.5" cy="4.74" r="0.5" fill="#4caf50"/>
  </g>
  
  <!-- 分针（长，指向12点） - 形成 J 的竖线 -->
  <path d="M16 16 L16 6" stroke="#4caf50" stroke-width="2" stroke-linecap="round"/>
  
  <!-- 时针（短，指向7点） - 形成 J 的底部 -->
  <path d="M16 16 L13 21.2" stroke="#4caf50" stroke-width="2" stroke-linecap="round"/>
  
  <!-- "in" 文字部分（很细很轻） -->
  <!-- i -->
  <circle cx="19.5" cy="13" r="0.5" fill="#4caf50" opacity="1"/>
  <path d="M19.5 15 L19.5 17" stroke="#4caf50" stroke-width="1" stroke-linecap="round" opacity="0.6"/>
  
  <!-- n -->
  <path d="M22 14 L22 17 M22 15 Q22 14 23 14 Q24 14 24 15 L24 17" 
        stroke="#4caf50" stroke-width="1" stroke-linecap="round" fill="none" opacity="0.6"/>
  
  <!-- 中心点 -->
  <circle cx="16" cy="16" r="1.5" fill="#4caf50"/>
</svg>
